{
    "asset" : {
        "generator" : "Khronos glTF Blender I/O v3.4.50",
        "version" : "2.0"
    },
    "extensionsUsed" : [
        "KHR_materials_ior",
        "KHR_materials_specular"
    ],
    "scene" : 0,
    "scenes" : [
        {
            "name" : "Scene",
            "nodes" : [
                0
            ]
        }
    ],
    "nodes" : [
        {
            "mesh" : 0,
            "name" : "Bulldog_Puppy",
            "rotation" : [
                0.70710688829422,
                0,
                0,
                0.7071066498756409
            ]
        }
    ],
    "materials" : [
        {
            "doubleSided" : true,
            "extensions" : {
                "KHR_materials_specular" : {
                    "specularColorFactor" : [
                        0,
                        0,
                        0
                    ]
                },
                "KHR_materials_ior" : {
                    "ior" : 1.4500000476837158
                }
            },
            "name" : "Body.001",
            "pbrMetallicRoughness" : {
                "baseColorTexture" : {
                    "index" : 0
                },
                "metallicFactor" : 0
            }
        },
        {
            "doubleSided" : true,
            "extensions" : {
                "KHR_materials_specular" : {
                    "specularColorFactor" : [
                        0,
                        0,
                        0
                    ]
                },
                "KHR_materials_ior" : {
                    "ior" : 1.4500000476837158
                }
            },
            "name" : "Eyes.001",
            "pbrMetallicRoughness" : {
                "baseColorFactor" : [
                    0.04319222271442413,
                    0.033482618629932404,
                    0.0044324928894639015,
                    1
                ],
                "metallicFactor" : 0,
                "roughnessFactor" : 0.1834862381219864
            }
        }
    ],
    "meshes" : [
        {
            "name" : "Bulldog_Puppy.001",
            "primitives" : [
                {
                    "attributes" : {
                        "POSITION" : 0,
                        "TEXCOORD_0" : 1,
                        "NORMAL" : 2
                    },
                    "indices" : 3,
                    "material" : 0
                },
                {
                    "attributes" : {
                        "POSITION" : 4,
                        "TEXCOORD_0" : 5,
                        "NORMAL" : 6
                    },
                    "indices" : 7,
                    "material" : 1
                }
            ]
        }
    ],
    "textures" : [
        {
            "sampler" : 0,
            "source" : 0
        }
    ],
    "images" : [
        {
            "bufferView" : 4,
            "mimeType" : "image/jpeg",
            "name" : "Bulldog_Diffuse_Map"
        }
    ],
    "accessors" : [
        {
            "bufferView" : 0,
            "componentType" : 5126,
            "count" : 40876,
            "max" : [
                9.909278869628906,
                24.615427017211914,
                0.20993423461914062
            ],
            "min" : [
                -9.90982437133789,
                -24.36577033996582,
                -35.807674407958984
            ],
            "type" : "VEC3"
        },
        {
            "bufferView" : 1,
            "componentType" : 5126,
            "count" : 40876,
            "type" : "VEC2"
        },
        {
            "bufferView" : 2,
            "componentType" : 5126,
            "count" : 40876,
            "type" : "VEC3"
        },
        {
            "bufferView" : 3,
            "componentType" : 5123,
            "count" : 236268,
            "type" : "SCALAR"
        },
        {
            "bufferView" : 5,
            "componentType" : 5126,
            "count" : 4228,
            "max" : [
                4.958789348602295,
                20.566898345947266,
                -27.40151023864746
            ],
            "min" : [
                -4.9517340660095215,
                17.90582275390625,
                -30.049880981445312
            ],
            "type" : "VEC3"
        },
        {
            "bufferView" : 6,
            "componentType" : 5126,
            "count" : 4228,
            "type" : "VEC2"
        },
        {
            "bufferView" : 7,
            "componentType" : 5126,
            "count" : 4228,
            "type" : "VEC3"
        },
        {
            "bufferView" : 8,
            "componentType" : 5123,
            "count" : 23808,
            "type" : "SCALAR"
        }
    ],
    "bufferViews" : [
        {
            "buffer" : 0,
            "byteLength" : 490512,
            "byteOffset" : 0,
            "target" : 34962
        },
        {
            "buffer" : 0,
            "byteLength" : 327008,
            "byteOffset" : 490512,
            "target" : 34962
        },
        {
            "buffer" : 0,
            "byteLength" : 490512,
            "byteOffset" : 817520,
            "target" : 34962
        },
        {
            "buffer" : 0,
            "byteLength" : 472536,
            "byteOffset" : 1308032,
            "target" : 34963
        },
        {
            "buffer" : 0,
            "byteLength" : 319641,
            "byteOffset" : 1780568
        },
        {
            "buffer" : 0,
            "byteLength" : 50736,
            "byteOffset" : 2100212,
            "target" : 34962
        },
        {
            "buffer" : 0,
            "byteLength" : 33824,
            "byteOffset" : 2150948,
            "target" : 34962
        },
        {
            "buffer" : 0,
            "byteLength" : 50736,
            "byteOffset" : 2184772,
            "target" : 34962
        },
        {
            "buffer" : 0,
            "byteLength" : 47616,
            "byteOffset" : 2235508,
            "target" : 34963
        }
    ],
    "samplers" : [
        {
            "magFilter" : 9729,
            "minFilter" : 9987
        }
    ],
    "buffers" : [
        {
            "byteLength" : 2283124,
            "uri" : "data:application/octet-stream;base64,"
        }
    ]
}
